<svg width="229" height="28" viewBox="0 0 229 28" fill="none" xmlns="http://www.w3.org/2000/svg">
<g clip-path="url(#clip0_4_18)">
<path d="M17.6962 20.9067H0.0908203V19.8852C0.726721 19.8673 1.23544 19.8136 1.61698 19.724C2.01669 19.6344 2.32556 19.482 2.54358 19.267C2.7616 19.052 2.90695 18.7473 2.97963 18.3531C3.0523 17.9588 3.08864 17.4481 3.08864 16.8209V4.29484C3.08864 3.66764 3.0523 3.16588 2.97963 2.78956C2.92512 2.39532 2.79794 2.09068 2.59809 1.87564C2.4164 1.64268 2.14387 1.49036 1.7805 1.41868C1.41713 1.32908 0.944744 1.26636 0.363349 1.23052V0.209076H8.64823V1.23052C8.06683 1.24844 7.59445 1.3022 7.23108 1.3918C6.88588 1.4814 6.61335 1.64268 6.41349 1.87564C6.23181 2.1086 6.10463 2.43116 6.03195 2.84332C5.97745 3.25548 5.95019 3.80204 5.95019 4.483V16.0683C5.95019 16.8209 6.02287 17.4392 6.16822 17.923C6.33173 18.3889 6.59518 18.7563 6.95855 19.0251C7.34009 19.276 7.83973 19.4552 8.45746 19.5627C9.07519 19.6523 9.85644 19.6971 10.8012 19.6971C11.8368 19.6971 12.7089 19.6433 13.4175 19.5358C14.1261 19.4104 14.7165 19.2043 15.1889 18.9176C15.6795 18.6129 16.061 18.2008 16.3335 17.6811C16.6242 17.1435 16.8695 16.4536 17.0694 15.6113H18.105L17.6962 20.9067ZM27.5226 6.39148C28.5582 6.39148 29.5393 6.57964 30.4659 6.95596C31.3925 7.31436 32.201 7.81612 32.8914 8.46124C33.6 9.10636 34.1541 9.87692 34.5538 10.7729C34.9717 11.651 35.1806 12.6187 35.1806 13.676C35.1806 14.7691 34.9717 15.7726 34.5538 16.6865C34.1541 17.6004 33.6 18.3889 32.8914 19.052C32.201 19.715 31.3925 20.2347 30.4659 20.611C29.5393 20.9873 28.5582 21.1755 27.5226 21.1755C26.5051 21.1755 25.5331 20.9963 24.6065 20.6379C23.6981 20.2616 22.8987 19.7419 22.2082 19.0788C21.5178 18.4158 20.9728 17.6273 20.5731 16.7134C20.1734 15.7816 19.9735 14.7691 19.9735 13.676C19.9735 12.6187 20.1734 11.642 20.5731 10.746C20.9728 9.85004 21.5178 9.07948 22.2082 8.43436C22.8987 7.78924 23.6981 7.28748 24.6065 6.92908C25.5331 6.57068 26.5051 6.39148 27.5226 6.39148ZM27.5226 7.68172C26.8503 7.68172 26.2326 7.82508 25.6694 8.1118C25.1243 8.39852 24.6519 8.81068 24.2522 9.34828C23.8707 9.86796 23.5709 10.5041 23.3529 11.2568C23.153 11.9915 23.0531 12.8068 23.0531 13.7028C23.0531 14.6347 23.153 15.4769 23.3529 16.2296C23.5709 16.9822 23.8707 17.6273 24.2522 18.1649C24.6519 18.6846 25.1243 19.0878 25.6694 19.3745C26.2144 19.6612 26.8322 19.8046 27.5226 19.8046C28.213 19.8046 28.8398 19.6612 29.403 19.3745C29.9662 19.0878 30.4477 18.6756 30.8474 18.138C31.2471 17.6004 31.556 16.9553 31.774 16.2027C31.992 15.45 32.101 14.6168 32.101 13.7028C32.101 12.8068 31.992 11.9915 31.774 11.2568C31.556 10.522 31.2471 9.89484 30.8474 9.37516C30.4477 8.83756 29.9662 8.4254 29.403 8.13868C28.8398 7.83404 28.213 7.68172 27.5226 7.68172ZM49.115 10.9611C49.115 10.2264 49.0968 9.65292 49.0605 9.24076C49.0241 8.81068 48.9242 8.48812 48.7607 8.27308C48.6154 8.04012 48.3882 7.8878 48.0794 7.81612C47.7887 7.72652 47.3799 7.65484 46.853 7.60108V6.66028H51.7858V14.9124C51.7858 15.9339 51.7949 16.7672 51.813 17.4123C51.8494 18.0574 51.8948 18.5412 51.9493 18.8638C51.9856 19.0968 52.0401 19.2849 52.1128 19.4283C52.2036 19.5537 52.3308 19.6612 52.4943 19.7508C52.6579 19.8225 52.8668 19.8763 53.1212 19.9121C53.3937 19.93 53.7389 19.939 54.1568 19.939V20.8798L49.66 21.2024L49.3603 17.9768H49.2513C48.5608 19.0878 47.7614 19.9032 46.853 20.4228C45.9627 20.9246 45.0271 21.1755 44.046 21.1755C43.2829 21.1755 42.538 21.0321 41.8112 20.7454C41.1026 20.4587 40.5667 20.0734 40.2033 19.5896C39.8944 19.1953 39.6673 18.6488 39.522 17.9499C39.3948 17.251 39.3312 16.346 39.3312 15.235V10.9611C39.3312 10.2264 39.313 9.65292 39.2767 9.24076C39.2404 8.81068 39.1404 8.48812 38.9769 8.27308C38.8316 8.04012 38.6045 7.8878 38.2956 7.81612C38.0049 7.72652 37.5961 7.65484 37.0692 7.60108V6.66028H42.002V13.9985C42.002 15.9518 42.2291 17.3675 42.6833 18.2456C43.1557 19.1236 43.9006 19.5627 44.918 19.5627C46.5169 19.5627 47.7614 18.5323 48.6517 16.4715C48.7425 16.2564 48.8152 16.0593 48.8697 15.8801C48.9242 15.7009 48.9696 15.5038 49.006 15.2888C49.0423 15.0737 49.0696 14.8318 49.0877 14.563C49.1059 14.2942 49.115 13.9716 49.115 13.5953V10.9611ZM57.0978 20.9067H56.4983V16.2833H57.1796C57.8881 18.81 59.1781 20.0734 61.0495 20.0734C61.7762 20.0734 62.3485 19.9032 62.7664 19.5627C63.2025 19.2043 63.4205 18.6667 63.4205 17.9499C63.4205 17.6811 63.3751 17.4571 63.2842 17.2779C63.2115 17.0808 63.0571 16.8836 62.8209 16.6865C62.6029 16.4715 62.2849 16.2296 61.8671 15.9608C61.4674 15.692 60.9314 15.3515 60.2592 14.9393C59.6414 14.563 59.1054 14.2136 58.6512 13.891C58.197 13.5684 57.8155 13.2459 57.5066 12.9233C57.1977 12.5828 56.9616 12.2244 56.798 11.8481C56.6527 11.4718 56.58 11.0328 56.58 10.531C56.58 9.92172 56.6799 9.3662 56.8798 8.86444C57.0978 8.34476 57.3885 7.90572 57.7519 7.54732C58.1153 7.18892 58.5422 6.91116 59.0328 6.71404C59.5233 6.499 60.0593 6.39148 60.6407 6.39148C61.1312 6.39148 61.64 6.47212 62.1669 6.6334C62.6937 6.77676 63.157 6.97388 63.5568 7.22476L64.1018 6.66028H64.6196V10.531H63.911C63.5113 9.43788 63.0753 8.65836 62.6029 8.19244C62.1305 7.72652 61.5491 7.49356 60.8587 7.49356C60.241 7.49356 59.7413 7.65484 59.3598 7.9774C58.9964 8.29996 58.8147 8.74796 58.8147 9.3214C58.8147 9.62604 58.8602 9.89484 58.951 10.1278C59.06 10.3428 59.2235 10.5579 59.4416 10.7729C59.6596 10.988 59.9321 11.212 60.2592 11.4449C60.6044 11.66 61.0131 11.9108 61.4855 12.1976C62.2668 12.6814 62.9299 13.1115 63.475 13.4878C64.0382 13.8641 64.4924 14.2404 64.8376 14.6168C65.1828 14.9752 65.4372 15.3515 65.6007 15.7457C65.7642 16.14 65.846 16.588 65.846 17.0897C65.846 18.362 65.4281 19.3656 64.5924 20.1003C63.7566 20.8171 62.6574 21.1755 61.2948 21.1755C59.8776 21.1755 58.6603 20.7723 57.6429 19.9659L57.0978 20.9067ZM87.1627 13.4072H79.8862C79.5773 14.1419 79.3138 14.796 79.0958 15.3694C78.8778 15.9249 78.6961 16.4088 78.5508 16.8209C78.4236 17.2331 78.3327 17.5825 78.2782 17.8692C78.2237 18.156 78.1965 18.3889 78.1965 18.5681C78.1965 19.0699 78.36 19.4193 78.687 19.6164C79.0141 19.7956 79.5591 19.8852 80.3222 19.8852V20.9067H73.6997V19.8852C74.1176 19.8315 74.4719 19.7598 74.7626 19.6702C75.0715 19.5806 75.3349 19.4552 75.5529 19.2939C75.7891 19.1326 75.989 18.9265 76.1525 18.6756C76.3342 18.4068 76.5068 18.0843 76.6703 17.708L83.7561 0.209076H84.9279L91.1143 15.3694C91.5322 16.3729 91.8956 17.1793 92.2045 17.7886C92.5133 18.38 92.8131 18.828 93.1038 19.1326C93.3945 19.4372 93.7034 19.6344 94.0304 19.724C94.3756 19.8136 94.7844 19.8584 95.2568 19.8584V20.9067H86.3723V19.8584C87.3353 19.8584 87.9984 19.7688 88.3618 19.5896C88.7252 19.4104 88.9069 19.1147 88.9069 18.7025C88.9069 18.5233 88.8978 18.362 88.8796 18.2187C88.8614 18.0574 88.8251 17.8872 88.7706 17.708C88.7343 17.5288 88.6707 17.3316 88.5798 17.1166C88.5072 16.8836 88.4072 16.6148 88.28 16.3102L87.1627 13.4072ZM80.4312 12.0632H86.6449L83.6198 4.13356L80.4312 12.0632ZM100.965 16.6328C100.965 17.3675 100.983 17.9499 101.02 18.38C101.056 18.81 101.147 19.1416 101.292 19.3745C101.456 19.5896 101.683 19.7329 101.973 19.8046C102.264 19.8763 102.673 19.93 103.2 19.9659V20.9067H95.9506V19.9659C96.4775 19.948 96.8954 19.9032 97.2042 19.8315C97.5131 19.7419 97.7493 19.5896 97.9128 19.3745C98.0763 19.1595 98.1763 18.8548 98.2126 18.4606C98.2671 18.0484 98.2944 17.5019 98.2944 16.8209V13.676C98.2944 12.4574 98.2762 11.5076 98.2398 10.8267C98.2217 10.1457 98.1308 9.64396 97.9673 9.3214C97.822 8.99884 97.5858 8.81068 97.2587 8.75692C96.9317 8.68524 96.4775 8.6494 95.8961 8.6494V7.7086L100.665 6.68716L101.047 10.0203H101.156C101.392 9.48268 101.683 8.98988 102.028 8.54188C102.391 8.09388 102.782 7.71756 103.2 7.41292C103.618 7.09036 104.054 6.83948 104.508 6.66028C104.962 6.48108 105.426 6.39148 105.898 6.39148C106.479 6.39148 106.934 6.53484 107.261 6.82156C107.606 7.09036 107.778 7.45772 107.778 7.92364C107.778 8.35372 107.642 8.6942 107.37 8.94508C107.097 9.17804 106.706 9.29452 106.198 9.29452C105.907 9.29452 105.662 9.25868 105.462 9.187C105.262 9.11532 105.08 9.04364 104.917 8.97196C104.771 8.88236 104.626 8.80172 104.481 8.73004C104.354 8.65836 104.208 8.62252 104.045 8.62252C103.554 8.62252 103.064 8.93612 102.573 9.56332C102.083 10.1726 101.701 10.9521 101.428 11.9019C101.283 12.4216 101.165 13.0129 101.074 13.676C101.001 14.3211 100.965 15.002 100.965 15.7188V16.6328ZM113.925 16.6059C113.925 17.3585 113.944 17.9499 113.98 18.38C114.016 18.81 114.107 19.1416 114.252 19.3745C114.416 19.5896 114.643 19.7329 114.934 19.8046C115.224 19.8763 115.633 19.93 116.16 19.9659V20.9067H108.911V19.9659C109.438 19.93 109.856 19.8763 110.165 19.8046C110.473 19.7329 110.71 19.5896 110.873 19.3745C111.037 19.1595 111.137 18.8548 111.173 18.4606C111.227 18.0484 111.255 17.5019 111.255 16.8209V13.3803C111.255 12.3588 111.236 11.5076 111.2 10.8267C111.182 10.1457 111.137 9.6798 111.064 9.42892C111.009 9.19596 110.946 9.01676 110.873 8.89132C110.8 8.74796 110.682 8.64044 110.519 8.56876C110.355 8.47916 110.137 8.4254 109.865 8.40748C109.61 8.37164 109.274 8.35372 108.856 8.35372V7.41292L113.299 6.39148L113.653 9.07948H113.789C114.607 8.16556 115.461 7.49356 116.351 7.06348C117.259 6.61548 118.259 6.39148 119.349 6.39148C120.493 6.39148 121.456 6.62444 122.238 7.09036C123.019 7.53836 123.564 8.19244 123.873 9.0526H123.982C124.654 8.21036 125.472 7.55628 126.434 7.09036C127.397 6.62444 128.424 6.39148 129.514 6.39148C130.368 6.39148 131.14 6.53484 131.831 6.82156C132.539 7.09036 133.075 7.46668 133.438 7.95052C133.766 8.36268 133.993 8.90924 134.12 9.5902C134.265 10.2532 134.338 11.1672 134.338 12.332V16.6059C134.338 17.3406 134.356 17.923 134.392 18.3531C134.447 18.7832 134.547 19.1147 134.692 19.3476C134.837 19.5806 135.055 19.7329 135.346 19.8046C135.655 19.8763 136.073 19.93 136.6 19.9659V20.9067H129.351V19.9659C129.859 19.948 130.268 19.9032 130.577 19.8315C130.886 19.7419 131.122 19.5896 131.286 19.3745C131.449 19.1416 131.549 18.828 131.585 18.4337C131.64 18.0395 131.667 17.5019 131.667 16.8209V13.434C131.667 12.4126 131.613 11.5524 131.504 10.8536C131.395 10.1368 131.213 9.56332 130.958 9.13324C130.704 8.68524 130.368 8.36268 129.95 8.16556C129.55 7.96844 129.06 7.86988 128.478 7.86988C127.679 7.86988 126.925 8.09388 126.216 8.54188C125.526 8.97196 124.981 9.55436 124.581 10.2891C124.49 10.4683 124.409 10.6475 124.336 10.8267C124.282 10.988 124.236 11.1761 124.2 11.3912C124.163 11.5883 124.136 11.8302 124.118 12.1169C124.118 12.4036 124.118 12.762 124.118 13.1921V16.6059C124.118 17.3406 124.136 17.923 124.172 18.3531C124.209 18.7832 124.3 19.1147 124.445 19.3476C124.609 19.5806 124.845 19.7329 125.154 19.8046C125.462 19.8763 125.88 19.93 126.407 19.9659V20.9067H119.158V19.9659C119.667 19.93 120.075 19.8763 120.384 19.8046C120.693 19.7329 120.92 19.5896 121.066 19.3745C121.229 19.1595 121.329 18.8548 121.365 18.4606C121.42 18.0484 121.447 17.5019 121.447 16.8209V13.434C121.447 12.3947 121.393 11.5256 121.284 10.8267C121.175 10.1099 120.993 9.53644 120.739 9.10636C120.502 8.65836 120.184 8.34476 119.785 8.16556C119.385 7.96844 118.895 7.86988 118.313 7.86988C117.496 7.86988 116.723 8.09388 115.997 8.54188C115.288 8.97196 114.752 9.55436 114.389 10.2891C114.298 10.4683 114.216 10.6475 114.143 10.8267C114.089 10.988 114.043 11.1761 114.007 11.3912C113.971 11.5883 113.944 11.8302 113.925 12.1169C113.925 12.4036 113.925 12.762 113.925 13.1921V16.6059Z" fill="black"/>
<path d="M139.468 20.9067H138.623V16.0145H139.768C140.077 17.3047 140.522 18.2455 141.103 18.8369C141.685 19.4283 142.439 19.7239 143.365 19.7239C144.038 19.7239 144.555 19.5895 144.919 19.3207C145.3 19.034 145.491 18.6487 145.491 18.1649C145.491 17.6631 145.264 17.1793 144.81 16.7134C144.355 16.2295 143.62 15.7188 142.602 15.1812C141.221 14.4465 140.231 13.7207 139.632 13.0039C139.032 12.2692 138.732 11.4449 138.732 10.531C138.732 9.93962 138.841 9.39306 139.059 8.8913C139.296 8.37162 139.604 7.92362 139.986 7.5473C140.386 7.17098 140.858 6.88426 141.403 6.68714C141.948 6.4721 142.539 6.36458 143.175 6.36458C143.738 6.36458 144.292 6.44522 144.837 6.6065C145.4 6.76778 145.891 6.99178 146.309 7.2785L146.799 6.63338H147.508V10.6923H146.445C146.027 9.67082 145.591 8.9361 145.137 8.4881C144.701 8.0401 144.165 7.8161 143.529 7.8161C143.02 7.8161 142.611 7.9505 142.302 8.2193C142.012 8.4881 141.866 8.8465 141.866 9.2945C141.866 9.79626 142.084 10.2711 142.52 10.7191C142.975 11.1671 143.72 11.6599 144.755 12.1975C145.482 12.5918 146.109 12.9771 146.636 13.3534C147.163 13.7297 147.589 14.115 147.917 14.5092C148.244 14.8855 148.48 15.2887 148.625 15.7188C148.789 16.131 148.87 16.579 148.87 17.0628C148.87 17.69 148.752 18.2545 148.516 18.7563C148.28 19.258 147.944 19.6881 147.508 20.0465C147.072 20.4049 146.545 20.6827 145.927 20.8798C145.328 21.0769 144.655 21.1755 143.91 21.1755C143.129 21.1755 142.402 21.0769 141.73 20.8798C141.058 20.6647 140.504 20.3601 140.068 19.9659L139.468 20.9067ZM150.528 8.13866V6.92906C151.618 6.62442 152.526 6.16746 153.253 5.55818C153.998 4.93098 154.552 4.21418 154.916 3.40778H156.305V6.66026H159.44V8.13866H156.305V16.3908C156.305 17.5019 156.424 18.2903 156.66 18.7563C156.914 19.2222 157.332 19.4551 157.913 19.4551C158.622 19.4551 159.158 19.1326 159.521 18.4875L160.094 19.267C159.585 20.5393 158.386 21.1755 156.496 21.1755C155.243 21.1755 154.262 20.8887 153.553 20.3153C152.863 19.7419 152.517 18.9355 152.517 17.8961V8.13866H150.528ZM167.284 16.7403C167.284 17.4391 167.311 17.9947 167.366 18.4068C167.438 18.8011 167.575 19.1057 167.774 19.3207C167.974 19.5358 168.265 19.6791 168.647 19.7508C169.028 19.8046 169.537 19.8315 170.173 19.8315V20.9067H161.07V19.8315C161.615 19.7956 162.051 19.7419 162.378 19.6702C162.705 19.5985 162.951 19.4551 163.114 19.2401C163.278 19.0251 163.378 18.7204 163.414 18.3262C163.468 17.914 163.496 17.3675 163.496 16.6865V13.4071C163.496 12.2961 163.468 11.4091 163.414 10.746C163.359 10.083 163.241 9.57226 163.06 9.21386C162.878 8.85546 162.615 8.6225 162.269 8.51498C161.942 8.38954 161.506 8.32682 160.961 8.32682V7.38602L166.412 6.39146L166.848 9.48266H166.957C167.447 8.5329 168.092 7.78026 168.892 7.22474C169.691 6.66922 170.536 6.39146 171.426 6.39146C172.117 6.39146 172.68 6.5617 173.116 6.90218C173.552 7.24266 173.77 7.67274 173.77 8.19242C173.77 8.76586 173.597 9.2497 173.252 9.64394C172.925 10.0382 172.471 10.2353 171.89 10.2353C171.617 10.2353 171.372 10.1815 171.154 10.074C170.936 9.9665 170.736 9.85002 170.554 9.72458C170.391 9.58122 170.218 9.45578 170.036 9.34826C169.873 9.22282 169.7 9.1601 169.519 9.1601C169.173 9.1601 168.846 9.3841 168.538 9.8321C168.229 10.2801 167.974 10.8804 167.774 11.6331C167.629 12.1707 167.511 12.7799 167.42 13.4609C167.329 14.1239 167.284 14.787 167.284 15.45V16.7403ZM182.632 6.39146C183.722 6.39146 184.748 6.57962 185.711 6.95594C186.692 7.31434 187.546 7.8161 188.273 8.46122C189.018 9.10634 189.599 9.8769 190.017 10.7729C190.453 11.651 190.671 12.6187 190.671 13.6759C190.671 14.7691 190.453 15.7726 190.017 16.6865C189.599 17.6004 189.018 18.3889 188.273 19.0519C187.546 19.715 186.692 20.2347 185.711 20.611C184.748 20.9873 183.722 21.1755 182.632 21.1755C181.56 21.1755 180.542 20.9963 179.579 20.6379C178.617 20.2615 177.772 19.7419 177.045 19.0788C176.318 18.4158 175.746 17.6273 175.328 16.7134C174.91 15.7815 174.701 14.7691 174.701 13.6759C174.701 12.6187 174.91 11.642 175.328 10.746C175.746 9.85002 176.318 9.07946 177.045 8.43434C177.772 7.78922 178.617 7.28746 179.579 6.92906C180.542 6.57066 181.56 6.39146 182.632 6.39146ZM182.632 7.9505C182.087 7.9505 181.587 8.09386 181.133 8.38058C180.679 8.64938 180.288 9.03466 179.961 9.53642C179.652 10.0382 179.407 10.6475 179.225 11.3643C179.062 12.0631 178.98 12.8427 178.98 13.7028C178.98 14.5988 179.062 15.4052 179.225 16.122C179.407 16.8388 179.652 17.4481 179.961 17.9499C180.288 18.4516 180.67 18.8459 181.106 19.1326C181.56 19.4014 182.069 19.5358 182.632 19.5358C183.195 19.5358 183.704 19.4014 184.158 19.1326C184.63 18.8459 185.03 18.4516 185.357 17.9499C185.684 17.4302 185.938 16.8119 186.12 16.0951C186.302 15.3783 186.393 14.5809 186.393 13.7028C186.393 12.8427 186.302 12.0631 186.12 11.3643C185.938 10.6654 185.684 10.0651 185.357 9.5633C185.03 9.04362 184.63 8.64938 184.158 8.38058C183.704 8.09386 183.195 7.9505 182.632 7.9505ZM198.688 16.5252C198.688 17.2599 198.706 17.8423 198.742 18.2724C198.797 18.6846 198.897 19.0071 199.042 19.2401C199.206 19.4551 199.442 19.5985 199.751 19.6702C200.078 19.7419 200.514 19.7956 201.059 19.8315V20.9067H192.474V19.8315C193.001 19.7956 193.419 19.7419 193.728 19.6702C194.055 19.5985 194.3 19.4551 194.464 19.2401C194.645 19.0251 194.763 18.7204 194.818 18.3262C194.872 17.9319 194.9 17.3943 194.9 16.7134V13.3534C194.9 12.2961 194.882 11.4449 194.845 10.7998C194.809 10.1367 194.763 9.68874 194.709 9.45578C194.654 9.22282 194.582 9.03466 194.491 8.8913C194.4 8.73002 194.264 8.61354 194.082 8.54186C193.9 8.45226 193.673 8.3985 193.401 8.38058C193.128 8.34474 192.783 8.32682 192.365 8.32682V7.4129L197.625 6.39146L197.979 8.7569H198.088C198.688 8.00426 199.396 7.42186 200.214 7.0097C201.032 6.59754 201.931 6.39146 202.912 6.39146C204.075 6.39146 205.011 6.55274 205.719 6.8753C206.446 7.17994 207.091 7.69962 207.654 8.43434C207.963 8.8465 208.236 9.3841 208.472 10.0471C208.708 10.6923 208.826 11.5883 208.826 12.7351V16.5252C208.826 17.2599 208.844 17.8423 208.88 18.2724C208.935 18.6846 209.035 19.0071 209.18 19.2401C209.344 19.4551 209.58 19.5985 209.889 19.6702C210.198 19.7419 210.616 19.7956 211.142 19.8315V20.9067H202.612V19.8315C203.157 19.8135 203.584 19.7687 203.893 19.6971C204.22 19.6075 204.466 19.4551 204.629 19.2401C204.793 19.0251 204.902 18.7204 204.956 18.3262C205.011 17.914 205.038 17.3764 205.038 16.7134V13.0577C205.038 12.1438 204.983 11.3732 204.874 10.746C204.765 10.1188 204.584 9.61706 204.329 9.24074C204.093 8.8465 203.775 8.56874 203.375 8.40746C202.976 8.22826 202.476 8.13866 201.876 8.13866C201.295 8.13866 200.795 8.29994 200.378 8.6225C199.96 8.94506 199.596 9.39306 199.287 9.9665C199.124 10.2891 198.979 10.7102 198.851 11.2299C198.742 11.7316 198.688 12.2603 198.688 12.8158V16.5252ZM217.699 18.0036C218.189 18.0395 218.616 18.0753 218.98 18.1111C219.361 18.147 219.715 18.1918 220.042 18.2455C220.388 18.2814 220.724 18.3262 221.051 18.3799C221.396 18.4158 221.759 18.4606 222.141 18.5143C223.558 18.7115 224.666 19.2401 225.466 20.1003C226.283 20.9425 226.692 21.9908 226.692 23.2452C226.692 24.7684 226.056 25.9243 224.784 26.7127C223.513 27.5012 221.641 27.8955 219.17 27.8955C216.899 27.8955 215.146 27.5639 213.911 26.9009C212.693 26.2558 212.085 25.3329 212.085 24.1323C212.085 23.2004 212.33 22.4926 212.82 22.0087C213.311 21.5428 213.929 21.3099 214.674 21.3099C215.146 21.3099 215.6 21.3995 216.036 21.5787C216.49 21.7758 216.872 22.0535 217.181 22.4119C216.709 22.5015 216.318 22.7076 216.009 23.0302C215.718 23.3707 215.573 23.7649 215.573 24.2129C215.573 24.9297 215.891 25.4763 216.527 25.8526C217.181 26.2468 218.135 26.4439 219.388 26.4439C222.114 26.4439 223.476 25.5927 223.476 23.8903C223.476 23.2811 223.267 22.7524 222.849 22.3044C222.45 21.8743 221.868 21.6145 221.105 21.5249L216.336 20.8798C214.319 20.611 213.311 19.7239 213.311 18.2187C213.311 17.4839 213.547 16.8836 214.02 16.4177C214.51 15.9518 215.201 15.6292 216.091 15.45V15.3425C215.673 15.1812 215.291 14.9572 214.946 14.6705C214.619 14.3838 214.328 14.0523 214.074 13.6759C213.82 13.2996 213.62 12.8964 213.474 12.4663C213.347 12.0183 213.284 11.5614 213.284 11.0955C213.284 10.4324 213.42 9.81418 213.693 9.24074C213.983 8.64938 214.374 8.14762 214.864 7.73546C215.373 7.3233 215.964 7.00074 216.636 6.76778C217.326 6.5169 218.071 6.39146 218.871 6.39146C219.652 6.39146 220.415 6.50794 221.16 6.7409C221.905 6.97386 222.541 7.29642 223.068 7.70858C223.485 7.4577 223.849 7.25162 224.158 7.09034C224.466 6.91114 224.748 6.77674 225.002 6.68714C225.275 6.57962 225.52 6.50794 225.738 6.4721C225.956 6.41834 226.174 6.39146 226.392 6.39146C227.083 6.39146 227.637 6.54378 228.055 6.84842C228.491 7.15306 228.709 7.55626 228.709 8.05802C228.709 8.43434 228.591 8.74794 228.355 8.99882C228.118 9.23178 227.81 9.34826 227.428 9.34826C227.155 9.34826 226.937 9.2945 226.774 9.18698C226.61 9.06154 226.447 8.92714 226.283 8.78378C226.138 8.6225 225.984 8.4881 225.82 8.38058C225.657 8.25514 225.439 8.19242 225.166 8.19242C224.784 8.19242 224.421 8.43434 224.076 8.91818C224.258 9.22282 224.385 9.55434 224.457 9.91274C224.53 10.2532 224.566 10.6564 224.566 11.1223C224.566 11.8033 224.457 12.4305 224.239 13.0039C224.021 13.5774 223.676 14.0881 223.204 14.5361C222.75 14.9662 222.159 15.3335 221.432 15.6382C220.706 15.9428 219.824 16.1489 218.789 16.2564C217.917 16.346 217.308 16.4625 216.963 16.6059C216.636 16.7492 216.472 16.9643 216.472 17.251C216.472 17.6811 216.881 17.9319 217.699 18.0036ZM219.007 14.7243C219.588 14.7243 220.042 14.4196 220.369 13.8103C220.697 13.2011 220.86 12.3499 220.86 11.2567C220.86 10.1457 220.697 9.2945 220.369 8.70314C220.042 8.09386 219.579 7.78922 218.98 7.78922C218.362 7.78922 217.871 8.09386 217.508 8.70314C217.145 9.31242 216.963 10.1457 216.963 11.203C216.963 12.2782 217.145 13.1383 217.508 13.7835C217.889 14.4107 218.389 14.7243 219.007 14.7243Z" fill="#E01438"/>
</g>
<defs>
<clipPath id="clip0_4_18">
<rect width="229" height="28" fill="white"/>
</clipPath>
</defs>
</svg>
