<svg width="230" height="28" viewBox="0 0 230 28" fill="none" xmlns="http://www.w3.org/2000/svg">
<g clip-path="url(#clip0_19_106)">
<path d="M17.0952 21.0909H0.0876465V20.096C0.701955 20.0785 1.1934 20.0262 1.56199 19.9389C1.94812 19.8516 2.2465 19.7033 2.45712 19.4938C2.66774 19.2844 2.80816 18.9876 2.87836 18.6036C2.94857 18.2196 2.98367 17.7222 2.98367 17.1113V4.91055C2.98367 4.29964 2.94857 3.81091 2.87836 3.44436C2.82571 3.06036 2.70285 2.76364 2.50978 2.55418C2.33426 2.32727 2.07099 2.17891 1.71995 2.10909C1.36892 2.02182 0.912575 1.96073 0.350922 1.92582V0.930909H8.35448V1.92582C7.79283 1.94327 7.33649 1.99564 6.98545 2.08291C6.65197 2.17018 6.3887 2.32727 6.19563 2.55418C6.02011 2.78109 5.89725 3.09527 5.82704 3.49673C5.77439 3.89818 5.74806 4.43055 5.74806 5.09382V16.3782C5.74806 17.1113 5.81827 17.7135 5.95868 18.1847C6.11664 18.6385 6.37114 18.9964 6.72218 19.2582C7.09076 19.5025 7.57343 19.6771 8.17019 19.7818C8.76695 19.8691 9.52167 19.9127 10.4344 19.9127C11.4348 19.9127 12.2773 19.8604 12.9618 19.7556C13.6463 19.6335 14.2167 19.4327 14.6731 19.1535C15.147 18.8567 15.5156 18.4553 15.7788 17.9491C16.0597 17.4255 16.2966 16.7535 16.4897 15.9331H17.4901L17.0952 21.0909ZM26.5879 6.95273C27.5884 6.95273 28.5362 7.136 29.4313 7.50255C30.3264 7.85164 31.1075 8.34036 31.7744 8.96873C32.459 9.59709 32.9943 10.3476 33.3804 11.2204C33.7841 12.0756 33.986 13.0182 33.986 14.048C33.986 15.1127 33.7841 16.0902 33.3804 16.9804C32.9943 17.8705 32.459 18.6385 31.7744 19.2844C31.1075 19.9302 30.3264 20.4364 29.4313 20.8029C28.5362 21.1695 27.5884 21.3527 26.5879 21.3527C25.605 21.3527 24.666 21.1782 23.7709 20.8291C22.8933 20.4625 22.121 19.9564 21.4541 19.3105C20.7871 18.6647 20.2605 17.8967 19.8744 17.0065C19.4883 16.0989 19.2952 15.1127 19.2952 14.048C19.2952 13.0182 19.4883 12.0669 19.8744 11.1942C20.2605 10.3215 20.7871 9.57091 21.4541 8.94254C22.121 8.31418 22.8933 7.82545 23.7709 7.47636C24.666 7.12727 25.605 6.95273 26.5879 6.95273ZM26.5879 8.20945C25.9385 8.20945 25.3418 8.34909 24.7977 8.62836C24.2711 8.90764 23.8148 9.30909 23.4286 9.83273C23.06 10.3389 22.7704 10.9585 22.5598 11.6916C22.3667 12.4073 22.2702 13.2015 22.2702 14.0742C22.2702 14.9818 22.3667 15.8022 22.5598 16.5353C22.7704 17.2684 23.06 17.8967 23.4286 18.4204C23.8148 18.9265 24.2711 19.3193 24.7977 19.5985C25.3242 19.8778 25.921 20.0175 26.5879 20.0175C27.2549 20.0175 27.8604 19.8778 28.4045 19.5985C28.9486 19.3193 29.4137 18.9178 29.7999 18.3942C30.186 17.8705 30.4844 17.2422 30.695 16.5091C30.9056 15.776 31.0109 14.9644 31.0109 14.0742C31.0109 13.2015 30.9056 12.4073 30.695 11.6916C30.4844 10.976 30.186 10.3651 29.7999 9.85891C29.4137 9.33527 28.9486 8.93382 28.4045 8.65454C27.8604 8.35782 27.2549 8.20945 26.5879 8.20945ZM47.4472 11.4036C47.4472 10.688 47.4296 10.1295 47.3945 9.728C47.3594 9.30909 47.2629 8.99491 47.1049 8.78545C46.9645 8.55855 46.7451 8.41018 46.4467 8.34036C46.1659 8.25309 45.771 8.18327 45.262 8.13091V7.21455H50.0273V15.2524C50.0273 16.2473 50.036 17.0589 50.0536 17.6873C50.0887 18.3156 50.1326 18.7869 50.1852 19.1011C50.2203 19.328 50.273 19.5113 50.3432 19.6509C50.431 19.7731 50.5538 19.8778 50.7118 19.9651C50.8697 20.0349 51.0716 20.0873 51.3173 20.1222C51.5806 20.1396 51.9141 20.1484 52.3178 20.1484V21.0647L47.9737 21.3789L47.6841 18.2371H47.5788C46.9118 19.3193 46.1396 20.1135 45.262 20.6196C44.402 21.1084 43.498 21.3527 42.5503 21.3527C41.8131 21.3527 41.0935 21.2131 40.3914 20.9338C39.7069 20.6545 39.1891 20.2793 38.8381 19.808C38.5397 19.424 38.3203 18.8916 38.1799 18.2109C38.057 17.5302 37.9956 16.6487 37.9956 15.5665V11.4036C37.9956 10.688 37.978 10.1295 37.9429 9.728C37.9078 9.30909 37.8113 8.99491 37.6533 8.78545C37.5129 8.55855 37.2935 8.41018 36.9952 8.34036C36.7143 8.25309 36.3194 8.18327 35.8104 8.13091V7.21455H40.5757V14.3622C40.5757 16.2647 40.7951 17.6436 41.2339 18.4989C41.6902 19.3542 42.4098 19.7818 43.3927 19.7818C44.9373 19.7818 46.1396 18.7782 46.9996 16.7709C47.0874 16.5615 47.1576 16.3695 47.2102 16.1949C47.2629 16.0204 47.3068 15.8284 47.3419 15.6189C47.377 15.4095 47.4033 15.1738 47.4208 14.912C47.4384 14.6502 47.4472 14.336 47.4472 13.9695V11.4036ZM58.8974 16.928C58.8974 17.6087 58.9238 18.1585 58.9764 18.5775C59.0466 18.9789 59.1695 19.3018 59.345 19.5462C59.5205 19.7731 59.7662 19.9302 60.0822 20.0175C60.3981 20.1047 60.8193 20.1571 61.3459 20.1745V21.0909H53.7899V20.1745C54.3165 20.1571 54.7465 20.1047 55.08 20.0175C55.4134 19.9127 55.6679 19.7556 55.8434 19.5462C56.0365 19.3193 56.1594 19.0138 56.212 18.6298C56.2822 18.2284 56.3173 17.7222 56.3173 17.1113V13.76C56.3173 12.7476 56.2998 11.9185 56.2647 11.2727C56.2471 10.6095 56.2033 10.1556 56.133 9.91127C56.0453 9.50982 55.8434 9.23927 55.5275 9.09964C55.2116 8.94255 54.6148 8.864 53.7372 8.864V7.94764L58.8974 6.95273V16.928ZM55.8698 1.63782C55.8698 1.184 56.0277 0.8 56.3437 0.485818C56.6596 0.171634 57.0457 0.0145435 57.5021 0.0145435C57.9584 0.0145435 58.3446 0.171634 58.6605 0.485818C58.9764 0.8 59.1344 1.184 59.1344 1.63782C59.1344 2.09164 58.9764 2.47564 58.6605 2.78982C58.3446 3.104 57.9584 3.26109 57.5021 3.26109C57.0457 3.26109 56.6596 3.104 56.3437 2.78982C56.0277 2.47564 55.8698 2.09164 55.8698 1.63782ZM64.1319 21.0909H63.5527V16.5876H64.2108C64.8954 19.0487 66.1415 20.2793 67.9493 20.2793C68.6514 20.2793 69.2043 20.1135 69.608 19.7818C70.0292 19.4327 70.2398 18.9091 70.2398 18.2109C70.2398 17.9491 70.196 17.7309 70.1082 17.5564C70.038 17.3644 69.8888 17.1724 69.6606 16.9804C69.45 16.7709 69.1429 16.5353 68.7392 16.2735C68.353 16.0116 67.8353 15.68 67.1858 15.2785C66.5891 14.912 66.0713 14.5716 65.6325 14.2575C65.1937 13.9433 64.8251 13.6291 64.5268 13.3149C64.2284 12.9833 64.0002 12.6342 63.8423 12.2676C63.7018 11.9011 63.6316 11.4735 63.6316 10.9847C63.6316 10.3913 63.7282 9.85018 63.9212 9.36145C64.1319 8.85527 64.4127 8.42764 64.7637 8.07855C65.1148 7.72945 65.5272 7.45891 66.0011 7.26691C66.475 7.05745 66.9928 6.95273 67.5544 6.95273C68.0283 6.95273 68.5198 7.03127 69.0288 7.18836C69.5378 7.328 69.9853 7.52 70.3715 7.76436L70.898 7.21455H71.3982V10.9847H70.7137C70.3276 9.92 69.9064 9.16073 69.45 8.70691C68.9937 8.25309 68.432 8.02618 67.7651 8.02618C67.1683 8.02618 66.6856 8.18327 66.317 8.49745C65.966 8.81164 65.7905 9.248 65.7905 9.80655C65.7905 10.1033 65.8344 10.3651 65.9221 10.592C66.0274 10.8015 66.1854 11.0109 66.396 11.2204C66.6066 11.4298 66.8699 11.648 67.1858 11.8749C67.5193 12.0844 67.9142 12.3287 68.3706 12.608C69.1253 13.0793 69.7659 13.4982 70.2925 13.8647C70.8366 14.2313 71.2754 14.5978 71.6089 14.9644C71.9424 15.3135 72.1881 15.68 72.346 16.064C72.504 16.448 72.583 16.8844 72.583 17.3731C72.583 18.6124 72.1793 19.5898 71.3719 20.3055C70.5645 21.0036 69.5027 21.3527 68.1863 21.3527C66.8173 21.3527 65.6413 20.96 64.6584 20.1745L64.1319 21.0909ZM93.1758 13.7862H86.1464C85.848 14.5018 85.5935 15.1389 85.3829 15.6975C85.1723 16.2385 84.9968 16.7098 84.8564 17.1113C84.7335 17.5127 84.6457 17.8531 84.5931 18.1324C84.5404 18.4116 84.5141 18.6385 84.5141 18.8131C84.5141 19.3018 84.6721 19.6422 84.988 19.8342C85.3039 20.0087 85.8305 20.096 86.5676 20.096V21.0909H80.1701V20.096C80.5737 20.0436 80.916 19.9738 81.1968 19.8865C81.4952 19.7993 81.7497 19.6771 81.9603 19.52C82.1885 19.3629 82.3816 19.1622 82.5395 18.9178C82.715 18.656 82.8818 18.3418 83.0398 17.9753L89.8849 0.930909H91.017L96.9933 15.6975C97.397 16.6749 97.7481 17.4604 98.0464 18.0538C98.3448 18.6298 98.6344 19.0662 98.9152 19.3629C99.1961 19.6596 99.4945 19.8516 99.8104 19.9389C100.144 20.0262 100.539 20.0698 100.995 20.0698V21.0909H92.4123V20.0698C93.3426 20.0698 93.9832 19.9825 94.3343 19.808C94.6853 19.6335 94.8608 19.3455 94.8608 18.944C94.8608 18.7695 94.852 18.6124 94.8345 18.4727C94.8169 18.3156 94.7818 18.1498 94.7292 17.9753C94.6941 17.8007 94.6326 17.6087 94.5449 17.3993C94.4747 17.1724 94.3781 16.9105 94.2553 16.6138L93.1758 13.7862ZM86.673 12.4771H92.6756L89.7533 4.75345L86.673 12.4771ZM106.51 16.928C106.51 17.6436 106.527 18.2109 106.562 18.6298C106.597 19.0487 106.685 19.3716 106.826 19.5985C106.984 19.808 107.203 19.9476 107.484 20.0175C107.765 20.0873 108.159 20.1396 108.668 20.1745V21.0909H101.665V20.1745C102.174 20.1571 102.578 20.1135 102.876 20.0436C103.175 19.9564 103.403 19.808 103.561 19.5985C103.719 19.3891 103.815 19.0924 103.851 18.7084C103.903 18.3069 103.93 17.7745 103.93 17.1113V14.048C103.93 12.8611 103.912 11.936 103.877 11.2727C103.859 10.6095 103.772 10.1207 103.614 9.80655C103.473 9.49236 103.245 9.30909 102.929 9.25673C102.613 9.18691 102.174 9.152 101.613 9.152V8.23564L106.22 7.24073L106.589 10.4873H106.694C106.922 9.96364 107.203 9.48364 107.536 9.04727C107.887 8.61091 108.265 8.24436 108.668 7.94764C109.072 7.63345 109.493 7.38909 109.932 7.21455C110.371 7.04 110.819 6.95273 111.275 6.95273C111.837 6.95273 112.275 7.09236 112.591 7.37164C112.925 7.63345 113.092 7.99127 113.092 8.44509C113.092 8.864 112.96 9.19564 112.697 9.44C112.433 9.66691 112.056 9.78036 111.565 9.78036C111.284 9.78036 111.047 9.74545 110.854 9.67564C110.661 9.60582 110.485 9.536 110.327 9.46618C110.187 9.37891 110.046 9.30036 109.906 9.23055C109.783 9.16073 109.643 9.12582 109.485 9.12582C109.011 9.12582 108.537 9.43127 108.063 10.0422C107.589 10.6356 107.22 11.3949 106.957 12.32C106.817 12.8262 106.703 13.4022 106.615 14.048C106.545 14.6764 106.51 15.3396 106.51 16.0378V16.928ZM119.03 16.9018C119.03 17.6349 119.047 18.2109 119.082 18.6298C119.118 19.0487 119.205 19.3716 119.346 19.5985C119.504 19.808 119.723 19.9476 120.004 20.0175C120.285 20.0873 120.68 20.1396 121.189 20.1745V21.0909H114.186V20.1745C114.695 20.1396 115.098 20.0873 115.397 20.0175C115.695 19.9476 115.923 19.808 116.081 19.5985C116.239 19.3891 116.336 19.0924 116.371 18.7084C116.423 18.3069 116.45 17.7745 116.45 17.1113V13.76C116.45 12.7651 116.432 11.936 116.397 11.2727C116.38 10.6095 116.336 10.1556 116.265 9.91127C116.213 9.68436 116.151 9.50982 116.081 9.38764C116.011 9.248 115.897 9.14327 115.739 9.07345C115.581 8.98618 115.37 8.93382 115.107 8.91636C114.861 8.88145 114.537 8.864 114.133 8.864V7.94764L118.424 6.95273L118.767 9.57091H118.898C119.688 8.68073 120.513 8.02618 121.373 7.60727C122.251 7.17091 123.216 6.95273 124.269 6.95273C125.375 6.95273 126.305 7.17964 127.06 7.63345C127.814 8.06982 128.341 8.70691 128.639 9.54473H128.745C129.394 8.72436 130.184 8.08727 131.114 7.63345C132.044 7.17964 133.036 6.95273 134.089 6.95273C134.914 6.95273 135.66 7.09236 136.327 7.37164C137.012 7.63345 137.529 8 137.88 8.47127C138.196 8.87273 138.416 9.40509 138.538 10.0684C138.679 10.7142 138.749 11.6044 138.749 12.7389V16.9018C138.749 17.6175 138.767 18.1847 138.802 18.6036C138.854 19.0225 138.951 19.3455 139.091 19.5724C139.232 19.7993 139.442 19.9476 139.723 20.0175C140.022 20.0873 140.425 20.1396 140.934 20.1745V21.0909H133.931V20.1745C134.423 20.1571 134.818 20.1135 135.116 20.0436C135.414 19.9564 135.642 19.808 135.8 19.5985C135.958 19.3716 136.055 19.0662 136.09 18.6822C136.143 18.2982 136.169 17.7745 136.169 17.1113V13.8124C136.169 12.8175 136.116 11.9796 136.011 11.2989C135.906 10.6007 135.73 10.0422 135.485 9.62327C135.239 9.18691 134.914 8.87273 134.51 8.68073C134.124 8.48873 133.65 8.39273 133.089 8.39273C132.316 8.39273 131.588 8.61091 130.904 9.04727C130.237 9.46618 129.71 10.0335 129.324 10.7491C129.236 10.9236 129.157 11.0982 129.087 11.2727C129.034 11.4298 128.99 11.6131 128.955 11.8225C128.92 12.0145 128.894 12.2502 128.876 12.5295C128.876 12.8087 128.876 13.1578 128.876 13.5767V16.9018C128.876 17.6175 128.894 18.1847 128.929 18.6036C128.964 19.0225 129.052 19.3455 129.192 19.5724C129.35 19.7993 129.578 19.9476 129.877 20.0175C130.175 20.0873 130.579 20.1396 131.088 20.1745V21.0909H124.085V20.1745C124.576 20.1396 124.971 20.0873 125.269 20.0175C125.568 19.9476 125.787 19.808 125.928 19.5985C126.086 19.3891 126.182 19.0924 126.217 18.7084C126.27 18.3069 126.296 17.7745 126.296 17.1113V13.8124C126.296 12.8 126.244 11.9535 126.138 11.2727C126.033 10.5745 125.857 10.016 125.612 9.59709C125.384 9.16073 125.076 8.85527 124.69 8.68073C124.304 8.48873 123.83 8.39273 123.269 8.39273C122.479 8.39273 121.733 8.61091 121.031 9.04727C120.346 9.46618 119.828 10.0335 119.477 10.7491C119.39 10.9236 119.311 11.0982 119.24 11.2727C119.188 11.4298 119.144 11.6131 119.109 11.8225C119.074 12.0145 119.047 12.2502 119.03 12.5295C119.03 12.8087 119.03 13.1578 119.03 13.5767V16.9018Z" fill="black"/>
<path d="M143.705 21.0909H142.889V16.3258H143.995C144.293 17.5825 144.723 18.4989 145.285 19.0749C145.847 19.6509 146.575 19.9389 147.47 19.9389C148.12 19.9389 148.62 19.808 148.971 19.5462C149.339 19.2669 149.524 18.8916 149.524 18.4204C149.524 17.9316 149.304 17.4604 148.866 17.0065C148.427 16.5353 147.716 16.0378 146.733 15.5142C145.399 14.7985 144.442 14.0916 143.863 13.3935C143.284 12.6778 142.994 11.8749 142.994 10.9847C142.994 10.4087 143.1 9.87636 143.31 9.38764C143.539 8.88145 143.837 8.44509 144.206 8.07854C144.592 7.712 145.048 7.43273 145.575 7.24073C146.101 7.03127 146.672 6.92654 147.286 6.92654C147.83 6.92654 148.365 7.00509 148.892 7.16218C149.436 7.31927 149.91 7.53745 150.314 7.81673L150.787 7.18836H151.472V11.1418H150.445C150.041 10.1469 149.62 9.43127 149.181 8.99491C148.76 8.55854 148.242 8.34036 147.628 8.34036C147.137 8.34036 146.742 8.47127 146.443 8.73309C146.163 8.99491 146.022 9.344 146.022 9.78036C146.022 10.2691 146.233 10.7316 146.654 11.168C147.093 11.6044 147.812 12.0844 148.813 12.608C149.515 12.992 150.12 13.3673 150.629 13.7338C151.138 14.1004 151.551 14.4756 151.867 14.8596C152.183 15.2262 152.411 15.6189 152.551 16.0378C152.709 16.4393 152.788 16.8756 152.788 17.3469C152.788 17.9578 152.674 18.5076 152.446 18.9964C152.218 19.4851 151.893 19.904 151.472 20.2531C151.051 20.6022 150.542 20.8727 149.945 21.0647C149.366 21.2567 148.716 21.3527 147.997 21.3527C147.242 21.3527 146.54 21.2567 145.89 21.0647C145.241 20.8553 144.706 20.5585 144.285 20.1745L143.705 21.0909ZM154.39 8.65454V7.47636C155.443 7.17964 156.32 6.73454 157.022 6.14109C157.742 5.53018 158.277 4.832 158.628 4.04655H159.971V7.21454H162.999V8.65454H159.971V16.6924C159.971 17.7745 160.085 18.5425 160.313 18.9964C160.559 19.4502 160.963 19.6771 161.524 19.6771C162.209 19.6771 162.727 19.3629 163.078 18.7345L163.63 19.4938C163.139 20.7331 161.981 21.3527 160.155 21.3527C158.944 21.3527 157.996 21.0735 157.312 20.5149C156.645 19.9564 156.311 19.1709 156.311 18.1585V8.65454H154.39ZM170.577 17.0327C170.577 17.7135 170.603 18.2545 170.656 18.656C170.726 19.04 170.857 19.3367 171.05 19.5462C171.244 19.7556 171.524 19.8953 171.893 19.9651C172.262 20.0175 172.753 20.0436 173.367 20.0436V21.0909H164.574V20.0436C165.1 20.0087 165.522 19.9564 165.838 19.8865C166.154 19.8167 166.39 19.6771 166.548 19.4676C166.706 19.2582 166.803 18.9615 166.838 18.5775C166.891 18.176 166.917 17.6436 166.917 16.9804V13.7862C166.917 12.704 166.891 11.84 166.838 11.1942C166.785 10.5484 166.671 10.0509 166.496 9.70182C166.32 9.35273 166.066 9.12582 165.732 9.02109C165.416 8.89891 164.995 8.83782 164.469 8.83782V7.92145L169.734 6.95273L170.155 9.96364H170.261C170.735 9.03854 171.358 8.30545 172.13 7.76436C172.902 7.22327 173.718 6.95273 174.578 6.95273C175.245 6.95273 175.789 7.11855 176.211 7.45018C176.632 7.78182 176.843 8.20073 176.843 8.70691C176.843 9.26545 176.676 9.73673 176.342 10.1207C176.026 10.5047 175.588 10.6967 175.026 10.6967C174.763 10.6967 174.526 10.6444 174.315 10.5396C174.104 10.4349 173.911 10.3215 173.736 10.1993C173.578 10.0596 173.411 9.93745 173.236 9.83273C173.078 9.71055 172.911 9.64945 172.735 9.64945C172.402 9.64945 172.086 9.86764 171.788 10.304C171.489 10.7404 171.244 11.3251 171.05 12.0582C170.91 12.5818 170.796 13.1753 170.708 13.8385C170.62 14.4844 170.577 15.1302 170.577 15.776V17.0327ZM185.403 6.95273C186.456 6.95273 187.448 7.136 188.378 7.50254C189.326 7.85164 190.151 8.34036 190.853 8.96873C191.573 9.59709 192.134 10.3476 192.538 11.2204C192.959 12.0756 193.17 13.0182 193.17 14.048C193.17 15.1127 192.959 16.0902 192.538 16.9804C192.134 17.8705 191.573 18.6385 190.853 19.2844C190.151 19.9302 189.326 20.4364 188.378 20.8029C187.448 21.1695 186.456 21.3527 185.403 21.3527C184.368 21.3527 183.385 21.1782 182.455 20.8291C181.524 20.4625 180.708 19.9564 180.006 19.3105C179.304 18.6647 178.751 17.8967 178.348 17.0065C177.944 16.0989 177.742 15.1127 177.742 14.048C177.742 13.0182 177.944 12.0669 178.348 11.1942C178.751 10.3215 179.304 9.57091 180.006 8.94254C180.708 8.31418 181.524 7.82545 182.455 7.47636C183.385 7.12727 184.368 6.95273 185.403 6.95273ZM185.403 8.47127C184.877 8.47127 184.394 8.61091 183.955 8.89018C183.517 9.152 183.139 9.52727 182.823 10.016C182.525 10.5047 182.288 11.0982 182.112 11.7964C181.954 12.4771 181.875 13.2364 181.875 14.0742C181.875 14.9469 181.954 15.7324 182.112 16.4305C182.288 17.1287 182.525 17.7222 182.823 18.2109C183.139 18.6996 183.508 19.0836 183.929 19.3629C184.368 19.6247 184.859 19.7556 185.403 19.7556C185.947 19.7556 186.439 19.6247 186.878 19.3629C187.334 19.0836 187.72 18.6996 188.036 18.2109C188.352 17.7047 188.598 17.1025 188.773 16.4044C188.949 15.7062 189.037 14.9295 189.037 14.0742C189.037 13.2364 188.949 12.4771 188.773 11.7964C188.598 11.1156 188.352 10.5309 188.036 10.0422C187.72 9.536 187.334 9.152 186.878 8.89018C186.439 8.61091 185.947 8.47127 185.403 8.47127ZM200.914 16.8233C200.914 17.5389 200.932 18.1062 200.967 18.5251C201.02 18.9265 201.116 19.2407 201.257 19.4676C201.414 19.6771 201.643 19.8167 201.941 19.8865C202.257 19.9564 202.678 20.0087 203.205 20.0436V21.0909H194.912V20.0436C195.421 20.0087 195.824 19.9564 196.123 19.8865C196.439 19.8167 196.676 19.6771 196.833 19.4676C197.009 19.2582 197.123 18.9615 197.176 18.5775C197.228 18.1935 197.255 17.6698 197.255 17.0065V13.7338C197.255 12.704 197.237 11.8749 197.202 11.2465C197.167 10.6007 197.123 10.1644 197.07 9.93745C197.018 9.71054 196.948 9.52727 196.86 9.38764C196.772 9.23054 196.64 9.11709 196.465 9.04727C196.289 8.96 196.07 8.90764 195.807 8.89018C195.543 8.85527 195.21 8.83782 194.806 8.83782V7.94764L199.887 6.95273L200.23 9.25673H200.335C200.914 8.52364 201.599 7.95636 202.389 7.55491C203.178 7.15345 204.047 6.95273 204.995 6.95273C206.118 6.95273 207.022 7.10982 207.707 7.424C208.409 7.72073 209.032 8.22691 209.576 8.94254C209.874 9.344 210.138 9.86764 210.366 10.5135C210.594 11.1418 210.708 12.0145 210.708 13.1316V16.8233C210.708 17.5389 210.726 18.1062 210.761 18.5251C210.813 18.9265 210.91 19.2407 211.05 19.4676C211.208 19.6771 211.436 19.8167 211.735 19.8865C212.033 19.9564 212.437 20.0087 212.946 20.0436V21.0909H204.705V20.0436C205.232 20.0262 205.644 19.9825 205.943 19.9127C206.259 19.8255 206.496 19.6771 206.654 19.4676C206.812 19.2582 206.917 18.9615 206.97 18.5775C207.022 18.176 207.049 17.6524 207.049 17.0065V13.4458C207.049 12.5556 206.996 11.8051 206.891 11.1942C206.785 10.5833 206.61 10.0945 206.364 9.728C206.136 9.344 205.829 9.07345 205.443 8.91636C205.056 8.74182 204.574 8.65454 203.995 8.65454C203.433 8.65454 202.95 8.81164 202.547 9.12582C202.143 9.44 201.792 9.87636 201.493 10.4349C201.335 10.7491 201.195 11.1593 201.072 11.6655C200.967 12.1542 200.914 12.6691 200.914 13.2102V16.8233ZM219.28 18.2633C219.753 18.2982 220.166 18.3331 220.517 18.368C220.885 18.4029 221.228 18.4465 221.544 18.4989C221.877 18.5338 222.202 18.5775 222.518 18.6298C222.851 18.6647 223.202 18.7084 223.571 18.7607C224.94 18.9527 226.011 19.4676 226.783 20.3055C227.573 21.1258 227.968 22.1469 227.968 23.3687C227.968 24.8524 227.353 25.9782 226.125 26.7462C224.896 27.5142 223.088 27.8982 220.701 27.8982C218.507 27.8982 216.814 27.5753 215.62 26.9295C214.444 26.3011 213.856 25.4022 213.856 24.2327C213.856 23.3251 214.093 22.6356 214.567 22.1644C215.041 21.7105 215.638 21.4836 216.357 21.4836C216.813 21.4836 217.252 21.5709 217.674 21.7455C218.112 21.9375 218.481 22.208 218.779 22.5571C218.323 22.6444 217.946 22.8451 217.647 23.1593C217.366 23.4909 217.226 23.8749 217.226 24.3113C217.226 25.0095 217.533 25.5418 218.147 25.9084C218.779 26.2924 219.701 26.4844 220.912 26.4844C223.545 26.4844 224.861 25.6553 224.861 23.9971C224.861 23.4036 224.659 22.8887 224.255 22.4524C223.869 22.0335 223.308 21.7804 222.57 21.6931L217.963 21.0647C216.015 20.8029 215.041 19.9389 215.041 18.4727C215.041 17.7571 215.269 17.1724 215.725 16.7185C216.199 16.2647 216.866 15.9505 217.726 15.776V15.6713C217.323 15.5142 216.954 15.296 216.62 15.0167C216.304 14.7375 216.024 14.4145 215.778 14.048C215.532 13.6815 215.339 13.2887 215.199 12.8698C215.076 12.4335 215.014 11.9884 215.014 11.5345C215.014 10.8887 215.146 10.2865 215.409 9.728C215.69 9.152 216.068 8.66327 216.541 8.26182C217.033 7.86036 217.603 7.54618 218.253 7.31927C218.92 7.07491 219.639 6.95273 220.412 6.95273C221.166 6.95273 221.903 7.06618 222.623 7.29309C223.343 7.52 223.957 7.83418 224.466 8.23564C224.87 7.99127 225.221 7.79054 225.519 7.63345C225.817 7.45891 226.09 7.328 226.335 7.24073C226.599 7.136 226.836 7.06618 227.046 7.03127C227.257 6.97891 227.467 6.95273 227.678 6.95273C228.345 6.95273 228.88 7.10109 229.284 7.39782C229.705 7.69454 229.916 8.08727 229.916 8.576C229.916 8.94254 229.802 9.248 229.574 9.49236C229.345 9.71927 229.047 9.83273 228.678 9.83273C228.415 9.83273 228.205 9.78036 228.047 9.67564C227.889 9.55345 227.731 9.42254 227.573 9.28291C227.432 9.12582 227.283 8.99491 227.125 8.89018C226.967 8.768 226.757 8.70691 226.493 8.70691C226.125 8.70691 225.774 8.94254 225.44 9.41382C225.616 9.71054 225.739 10.0335 225.809 10.3825C225.879 10.7142 225.914 11.1069 225.914 11.5607C225.914 12.224 225.809 12.8349 225.598 13.3935C225.387 13.952 225.054 14.4495 224.598 14.8858C224.159 15.3047 223.588 15.6625 222.886 15.9593C222.184 16.256 221.333 16.4567 220.333 16.5615C219.49 16.6487 218.902 16.7622 218.569 16.9018C218.253 17.0415 218.095 17.2509 218.095 17.5302C218.095 17.9491 218.49 18.1935 219.28 18.2633ZM220.543 15.0691C221.105 15.0691 221.544 14.7724 221.86 14.1789C222.176 13.5855 222.333 12.7564 222.333 11.6916C222.333 10.6095 222.176 9.78036 221.86 9.20436C221.544 8.61091 221.096 8.31418 220.517 8.31418C219.92 8.31418 219.446 8.61091 219.095 9.20436C218.744 9.79782 218.569 10.6095 218.569 11.6393C218.569 12.6865 218.744 13.5244 219.095 14.1527C219.464 14.7636 219.946 15.0691 220.543 15.0691Z" fill="#E01438"/>
</g>
<defs>
<clipPath id="clip0_19_106">
<rect width="230" height="28" fill="white"/>
</clipPath>
</defs>
</svg>
